<svg width="200" height="33" viewBox="0 0 200 33" fill="none" xmlns="http://www.w3.org/2000/svg">
<g opacity="0.75">
<path d="M0 20.9426C0 27.5347 5.08781 32.6667 11.5029 32.6667C15.9713 32.6667 18.6701 30.8086 20.4397 29.0389C21.4573 27.9771 22.2094 26.7383 22.7845 25.3668H17.918C17.5198 25.942 17.0331 26.4729 16.458 26.9153C15.4404 27.7559 13.8035 28.4637 11.5029 28.4637C8.18474 28.4637 5.35326 26.2516 4.64539 22.4911H23.0058V20.9426C23.0058 14.3506 17.9179 9.21854 11.5029 9.21854C5.08781 9.21854 0 14.3506 0 20.9426ZM4.8666 18.7305C5.57447 15.3682 8.40595 13.4215 11.5029 13.4215C15.5289 13.4215 17.6525 16.076 18.1392 18.7305H4.8666Z" fill="white"/>
<path d="M24.9777 9.66095L31.1716 32.2243H41.126L47.3199 9.66095H42.4533L37.5867 28.0213H34.7109L29.8443 9.66095H24.9777Z" fill="white"/>
<path d="M49.3057 20.9426C49.3057 27.5347 54.3935 32.6667 60.8085 32.6667C65.277 32.6667 67.9757 30.8086 69.7454 29.0389C70.763 27.9771 71.5151 26.7383 72.0902 25.3668H67.2236C66.8254 25.942 66.3388 26.4729 65.7636 26.9153C64.7461 27.7559 63.1091 28.4637 60.8085 28.4637C57.4904 28.4637 54.6589 26.2516 53.9511 22.4911H72.3114V20.9426C72.3114 14.3506 67.2236 9.21854 60.8085 9.21854C54.3935 9.21854 49.3057 14.3506 49.3057 20.9426ZM54.1723 18.7305C54.8801 15.3682 57.7116 13.4215 60.8085 13.4215C64.8345 13.4215 66.9582 16.076 67.4448 18.7305H54.1723Z" fill="white"/>
<path d="M76.4955 32.2243H81.1409V20.0578C81.1409 16.2972 83.7954 13.8639 87.3347 13.8639H90.2105V9.43975H87.5559C85.2996 9.43975 83.7954 10.3246 82.7778 11.2094C82.2027 11.7403 81.716 12.3155 81.3621 12.9791H81.1409V9.66095H76.4955V32.2243Z" fill="white"/>
</g>
<path d="M100.882 1.85157H94.8006L89.4577 32.2581H95.539L96.1037 29.0002H96.4078L96.7553 29.6084C97.3634 30.7812 99.4484 32.9096 103.488 32.9096C109.396 32.9096 115.043 27.6102 115.043 19.357C115.043 13.4495 111.22 9.45319 106.225 9.45319C103.923 9.45319 102.185 10.322 101.012 11.1473C100.317 11.6251 99.7091 12.1898 99.2312 12.7979H98.9706L100.882 1.85157ZM103.705 14.6657C106.833 14.6657 108.831 16.6639 108.831 19.9652C108.831 24.9171 105.921 27.6971 102.576 27.6971C99.4919 27.6971 97.4503 25.699 97.4503 22.3977C97.4503 17.4458 100.361 14.6657 103.705 14.6657Z" fill="white"/>
<path d="M124.625 27.6971C121.454 27.6971 119.282 25.6121 119.282 22.1805C119.282 17.5326 122.279 14.6657 125.885 14.6657C129.056 14.6657 131.228 16.7508 131.228 20.1823C131.228 24.8302 128.23 27.6971 124.625 27.6971ZM124.321 32.9096C131.445 32.9096 137.396 27.1324 137.396 20.0955C137.396 14.0142 132.791 9.45319 126.189 9.45319C119.065 9.45319 113.114 15.2304 113.114 22.2674C113.114 28.3487 117.718 32.9096 124.321 32.9096Z" fill="white"/>
<path d="M151.207 32.2581H157.288L161.198 10.1048H155.116L154.552 13.406H154.248L153.9 12.7545C153.248 11.6251 151.207 9.45319 147.167 9.45319C141.26 9.45319 135.613 14.7961 135.613 23.0492C135.613 29.0002 139.435 32.9096 144.431 32.9096C146.689 32.9096 148.47 32.0843 149.643 31.259C150.338 30.7812 150.946 30.2165 151.424 29.5649H151.685L151.207 32.2581ZM146.95 27.6971C143.822 27.6971 141.824 25.699 141.824 22.3977C141.824 17.4458 144.735 14.6657 148.079 14.6657C151.163 14.6657 153.205 16.6639 153.205 19.9652C153.205 24.9171 150.295 27.6971 146.95 27.6971Z" fill="white"/>
<path d="M175.608 15.5345L176.65 9.67038H173.957C171.655 9.67038 170.178 10.4523 169.179 11.2776C168.614 11.7554 168.18 12.2767 167.832 12.8413H167.615L168.093 10.1048H162.012L158.102 32.2581H164.184L166.355 20.052C166.92 16.8811 169.135 15.5345 172.393 15.5345H175.608Z" fill="white"/>
<path d="M188.062 32.2581H194.143L199.486 1.85157H193.405L191.406 13.406H191.102L190.755 12.7545C190.103 11.6251 188.062 9.45319 184.022 9.45319C178.114 9.45319 172.467 14.7961 172.467 23.0492C172.467 29.0002 176.29 32.9096 181.285 32.9096C183.544 32.9096 185.325 32.0843 186.498 31.259C187.193 30.7812 187.801 30.2165 188.279 29.5649H188.54L188.062 32.2581ZM183.805 27.6971C180.677 27.6971 178.679 25.699 178.679 22.3977C178.679 17.4458 181.589 14.6657 184.934 14.6657C188.018 14.6657 190.06 16.6639 190.06 19.9652C190.06 24.9171 187.149 27.6971 183.805 27.6971Z" fill="white"/>
</svg>
